<mxfile host="app.diagrams.net" modified="2022-12-04T18:44:04.637Z" agent="5.0 (X11)" etag="SDxYfQXQ9ullteLeW2e6" version="17.5.0" type="github">
  <diagram id="C5RBs43oDa-KdzZeNtuy" name="Page-1">
    <mxGraphModel dx="3437" dy="4478" grid="1" gridSize="10" guides="1" tooltips="1" connect="1" arrows="1" fold="1" page="1" pageScale="1" pageWidth="827" pageHeight="1169" math="0" shadow="0">
      <root>
        <mxCell id="WIyWlLk6GJQsqaUBKTNV-0" />
        <mxCell id="WIyWlLk6GJQsqaUBKTNV-1" parent="WIyWlLk6GJQsqaUBKTNV-0" />
        <UserObject label="Torrenting Age of Empires 2&#xa;3 simmilar looking links, 2 with malware" lucidchartObjectId="aHn~U2lk~q1L" id="Fv76a3I3B7tXcrqNxbKV-1">
          <mxCell style="html=1;overflow=block;blockSpacing=1;whiteSpace=wrap;fontSize=16.7;fontColor=#3a414a;spacing=9;strokeColor=#3a414a;strokeOpacity=100;rounded=1;absoluteArcSize=1;arcSize=9;strokeWidth=0.8;" parent="WIyWlLk6GJQsqaUBKTNV-1" vertex="1">
            <mxGeometry x="3240" y="170" width="255" height="90" as="geometry" />
          </mxCell>
        </UserObject>
        <UserObject label="Torrenting SOAD - B.Y.O.B.exe" lucidchartObjectId="pJn~HxXWkLlU" id="Fv76a3I3B7tXcrqNxbKV-2">
          <mxCell style="html=1;overflow=block;blockSpacing=1;whiteSpace=wrap;fontSize=16.7;fontColor=#3a414a;spacing=9;strokeColor=#3a414a;strokeOpacity=100;rounded=1;absoluteArcSize=1;arcSize=9;strokeWidth=0.8;" parent="WIyWlLk6GJQsqaUBKTNV-1" vertex="1">
            <mxGeometry x="2610" y="410" width="120" height="90" as="geometry" />
          </mxCell>
        </UserObject>
        <UserObject label="" lucidchartObjectId="~7ybA-g.w8CT" id="Fv76a3I3B7tXcrqNxbKV-3">
          <mxCell style="html=1;overflow=block;blockSpacing=1;whiteSpace=wrap;fontSize=13;spacing=9;strokeColor=#3a414a;strokeOpacity=100;rounded=1;absoluteArcSize=1;arcSize=9;strokeWidth=0.8;" parent="WIyWlLk6GJQsqaUBKTNV-1" vertex="1">
            <mxGeometry x="2685" y="575" width="120" height="90" as="geometry" />
          </mxCell>
        </UserObject>
        <UserObject label="&lt;div style=&quot;display: flex; justify-content: center; text-align: center; align-items: baseline; font-size: 0; line-height: 1.25;margin-top: -2px;&quot;&gt;&lt;span&gt;&lt;span style=&quot;font-size:16.7px;color:#3a414a;&quot;&gt;&lt;span style=&quot;font-size:16.7px;color:#3a414a;&quot;&gt;Gett&lt;/span&gt;&lt;span style=&quot;font-size:16.7px;color:#3a414a;&quot;&gt;ing Expeled from School&lt;/span&gt;&lt;/span&gt;&lt;/span&gt;&lt;/div&gt;" lucidchartObjectId="j9ybhGpfoPrV" id="Fv76a3I3B7tXcrqNxbKV-4">
          <mxCell style="html=1;overflow=block;blockSpacing=1;whiteSpace=wrap;rounded=1;arcSize=50;fontSize=13;spacing=3.8;strokeColor=#3a414a;strokeOpacity=100;strokeWidth=0.8;" parent="WIyWlLk6GJQsqaUBKTNV-1" vertex="1">
            <mxGeometry x="2655" y="740" width="221" height="96" as="geometry" />
          </mxCell>
        </UserObject>
        <UserObject label="Broken PC" lucidchartObjectId="e-yb9OJhcvEY" id="Fv76a3I3B7tXcrqNxbKV-5">
          <mxCell style="html=1;overflow=block;blockSpacing=1;whiteSpace=wrap;rounded=1;arcSize=50;fontSize=16.7;fontColor=#3a414a;spacing=3.8;strokeColor=#3a414a;strokeOpacity=100;strokeWidth=0.8;" parent="WIyWlLk6GJQsqaUBKTNV-1" vertex="1">
            <mxGeometry x="3285" y="680" width="221" height="96" as="geometry" />
          </mxCell>
        </UserObject>
        <UserObject label="Bank Account Drained" lucidchartObjectId="G~ybInmnv5Qn" id="Fv76a3I3B7tXcrqNxbKV-6">
          <mxCell style="html=1;overflow=block;blockSpacing=1;whiteSpace=wrap;rounded=1;arcSize=50;fontSize=16.7;fontColor=#3a414a;spacing=3.8;strokeColor=#3a414a;strokeOpacity=100;strokeWidth=0.8;" parent="WIyWlLk6GJQsqaUBKTNV-1" vertex="1">
            <mxGeometry x="2940" y="725" width="221" height="96" as="geometry" />
          </mxCell>
        </UserObject>
        <UserObject label="Pirate the Game" lucidchartObjectId="fbzbBZL41lnq" id="Fv76a3I3B7tXcrqNxbKV-7">
          <mxCell style="html=1;overflow=block;blockSpacing=1;whiteSpace=wrap;rhombus;fontSize=16.7;fontColor=#3a414a;spacing=3.8;strokeColor=#3a414a;strokeOpacity=100;rounded=1;absoluteArcSize=1;arcSize=9;strokeWidth=0.8;" parent="WIyWlLk6GJQsqaUBKTNV-1" vertex="1">
            <mxGeometry x="2730" y="170" width="120" height="90" as="geometry" />
          </mxCell>
        </UserObject>
        <UserObject label="" lucidchartObjectId="wbzbQ69lEg2k" id="Fv76a3I3B7tXcrqNxbKV-8">
          <mxCell style="html=1;jettySize=18;whiteSpace=wrap;fontSize=13.3;fontColor=#333333;fontStyle=1;strokeColor=#3a414a;strokeOpacity=100;strokeWidth=0.8;rounded=1;arcSize=12;edgeStyle=orthogonalEdgeStyle;startArrow=none;endArrow=block;endFill=1;exitX=0.984;exitY=0.5;exitPerimeter=0;entryX=0.013;entryY=0.5;entryPerimeter=0;" parent="WIyWlLk6GJQsqaUBKTNV-1" source="Fv76a3I3B7tXcrqNxbKV-7" target="Fv76a3I3B7tXcrqNxbKV-10" edge="1">
            <mxGeometry width="100" height="100" relative="1" as="geometry">
              <Array as="points" />
            </mxGeometry>
          </mxCell>
        </UserObject>
        <mxCell id="Fv76a3I3B7tXcrqNxbKV-9" value="Yes" style="text;html=1;resizable=0;labelBackgroundColor=default;align=center;verticalAlign=middle;fontStyle=1;fontColor=#333333;fontSize=13.3;" parent="Fv76a3I3B7tXcrqNxbKV-8" vertex="1">
          <mxGeometry relative="1" as="geometry" />
        </mxCell>
        <UserObject label="3 Almost Identical Links" lucidchartObjectId="IbzbPci9w6el" id="Fv76a3I3B7tXcrqNxbKV-10">
          <mxCell style="html=1;overflow=block;blockSpacing=1;whiteSpace=wrap;rhombus;fontSize=16.7;fontColor=#3a414a;spacing=3.8;strokeColor=#3a414a;strokeOpacity=100;rounded=1;absoluteArcSize=1;arcSize=9;strokeWidth=0.8;" parent="WIyWlLk6GJQsqaUBKTNV-1" vertex="1">
            <mxGeometry x="2910" y="268" width="165" height="112" as="geometry" />
          </mxCell>
        </UserObject>
        <UserObject label="Get Crypto Mining Malware" lucidchartObjectId="3czbiZbNeALd" id="Fv76a3I3B7tXcrqNxbKV-11">
          <mxCell style="html=1;overflow=block;blockSpacing=1;whiteSpace=wrap;fontSize=16.7;fontColor=#3a414a;spacing=9;strokeColor=#3a414a;strokeOpacity=100;rounded=1;absoluteArcSize=1;arcSize=9;strokeWidth=0.8;" parent="WIyWlLk6GJQsqaUBKTNV-1" vertex="1">
            <mxGeometry x="3225" y="410" width="120" height="90" as="geometry" />
          </mxCell>
        </UserObject>
        <UserObject label="" lucidchartObjectId="Fdzbukbe~-6w" id="Fv76a3I3B7tXcrqNxbKV-12">
          <mxCell style="html=1;jettySize=18;whiteSpace=wrap;fontSize=13;strokeColor=#3a414a;strokeOpacity=100;strokeWidth=0.8;rounded=1;arcSize=12;edgeStyle=orthogonalEdgeStyle;startArrow=none;endArrow=block;endFill=1;exitX=0.987;exitY=0.5;exitPerimeter=0;entryX=-0.003;entryY=0.5;entryPerimeter=0;" parent="WIyWlLk6GJQsqaUBKTNV-1" source="Fv76a3I3B7tXcrqNxbKV-10" target="Fv76a3I3B7tXcrqNxbKV-11" edge="1">
            <mxGeometry width="100" height="100" relative="1" as="geometry">
              <Array as="points" />
            </mxGeometry>
          </mxCell>
        </UserObject>
        <UserObject label="Uninstall the game" lucidchartObjectId="VfzbTYH0x9K3" id="Fv76a3I3B7tXcrqNxbKV-13">
          <mxCell style="html=1;overflow=block;blockSpacing=1;whiteSpace=wrap;rhombus;fontSize=16.7;fontColor=#3a414a;spacing=3.8;strokeColor=#3a414a;strokeOpacity=100;rounded=1;absoluteArcSize=1;arcSize=9;strokeWidth=0.8;" parent="WIyWlLk6GJQsqaUBKTNV-1" vertex="1">
            <mxGeometry x="3300" y="545" width="120" height="90" as="geometry" />
          </mxCell>
        </UserObject>
        <UserObject label="" lucidchartObjectId="9fzbxa7C7ogB" id="Fv76a3I3B7tXcrqNxbKV-14">
          <mxCell style="html=1;jettySize=18;whiteSpace=wrap;fontSize=13;strokeColor=#3a414a;strokeOpacity=100;strokeWidth=0.8;rounded=1;arcSize=12;edgeStyle=orthogonalEdgeStyle;startArrow=none;endArrow=block;endFill=1;exitX=0.984;exitY=0.5;exitPerimeter=0;" parent="WIyWlLk6GJQsqaUBKTNV-1" source="Fv76a3I3B7tXcrqNxbKV-13" edge="1">
            <mxGeometry width="100" height="100" relative="1" as="geometry">
              <Array as="points" />
              <mxPoint x="3480" y="590" as="targetPoint" />
            </mxGeometry>
          </mxCell>
        </UserObject>
        <UserObject label="" lucidchartObjectId="pgzbawx5_AJ5" id="Fv76a3I3B7tXcrqNxbKV-15">
          <mxCell style="html=1;jettySize=18;whiteSpace=wrap;fontSize=13.3;fontColor=#333333;fontStyle=1;strokeColor=#3a414a;strokeOpacity=100;strokeWidth=0.8;rounded=1;arcSize=12;edgeStyle=orthogonalEdgeStyle;startArrow=none;endArrow=block;endFill=1;exitX=0.016;exitY=0.5;exitPerimeter=0;entryX=0.482;entryY=-0.004;entryPerimeter=0;" parent="WIyWlLk6GJQsqaUBKTNV-1" source="Fv76a3I3B7tXcrqNxbKV-13" target="Fv76a3I3B7tXcrqNxbKV-5" edge="1">
            <mxGeometry width="100" height="100" relative="1" as="geometry">
              <Array as="points" />
            </mxGeometry>
          </mxCell>
        </UserObject>
        <mxCell id="Fv76a3I3B7tXcrqNxbKV-16" value="No" style="text;html=1;resizable=0;labelBackgroundColor=default;align=center;verticalAlign=middle;fontStyle=1;fontColor=#333333;fontSize=13.3;" parent="Fv76a3I3B7tXcrqNxbKV-15" vertex="1">
          <mxGeometry relative="1" as="geometry" />
        </mxCell>
        <UserObject label="Newbie loses all personal data kept on work computer. Company fires the newbie for misusing work computer" lucidchartObjectId="TFn~0lkABdut" id="Fv76a3I3B7tXcrqNxbKV-17">
          <mxCell style="html=1;overflow=block;blockSpacing=1;whiteSpace=wrap;rounded=1;arcSize=50;fontSize=16.7;fontColor=#3a414a;spacing=3.8;strokeColor=#3a414a;strokeOpacity=100;strokeWidth=0.8;" parent="WIyWlLk6GJQsqaUBKTNV-1" vertex="1">
            <mxGeometry x="2035" y="505" width="225" height="88" as="geometry" />
          </mxCell>
        </UserObject>
        <UserObject label="Company recovers but newbie falls victim to real sextortion" lucidchartObjectId="WFn~1iyr0TYj" id="Fv76a3I3B7tXcrqNxbKV-18">
          <mxCell style="html=1;overflow=block;blockSpacing=1;whiteSpace=wrap;rounded=1;arcSize=50;fontSize=16.7;fontColor=#3a414a;spacing=3.8;strokeColor=#3a414a;strokeOpacity=100;strokeWidth=0.8;" parent="WIyWlLk6GJQsqaUBKTNV-1" vertex="1">
            <mxGeometry x="1825" y="507" width="180" height="88" as="geometry" />
          </mxCell>
        </UserObject>
        <UserObject label="OnlyFans job" lucidchartObjectId="wIn~rF7nmvWi" id="Fv76a3I3B7tXcrqNxbKV-19">
          <mxCell style="html=1;overflow=block;blockSpacing=1;whiteSpace=wrap;rounded=1;arcSize=50;fontSize=16.7;fontColor=#3a414a;spacing=3.8;strokeColor=#3a414a;strokeOpacity=100;strokeWidth=0.8;" parent="WIyWlLk6GJQsqaUBKTNV-1" vertex="1">
            <mxGeometry x="1848" y="670" width="120" height="60" as="geometry" />
          </mxCell>
        </UserObject>
        <UserObject label="" lucidchartObjectId="FIn~wVFJKGvR" id="Fv76a3I3B7tXcrqNxbKV-20">
          <mxCell style="html=1;jettySize=18;whiteSpace=wrap;fontSize=13;strokeColor=#3a414a;strokeOpacity=100;strokeWidth=0.8;rounded=1;arcSize=12;edgeStyle=orthogonalEdgeStyle;startArrow=none;endArrow=block;endFill=1;exitX=0.5;exitY=1.004;exitPerimeter=0;entryX=0.5;entryY=-0.006;entryPerimeter=0;" parent="WIyWlLk6GJQsqaUBKTNV-1" source="Fv76a3I3B7tXcrqNxbKV-18" target="Fv76a3I3B7tXcrqNxbKV-19" edge="1">
            <mxGeometry width="100" height="100" relative="1" as="geometry">
              <Array as="points" />
            </mxGeometry>
          </mxCell>
        </UserObject>
        <UserObject label="Pro manages to neglect the situation to the point where company is inoperational for several days." lucidchartObjectId="YKn~h_X4o1VD" id="Fv76a3I3B7tXcrqNxbKV-21">
          <mxCell style="html=1;overflow=block;blockSpacing=1;whiteSpace=wrap;rounded=1;arcSize=50;fontSize=16.7;fontColor=#3a414a;spacing=3.8;strokeColor=#3a414a;strokeOpacity=100;strokeWidth=0.8;" parent="WIyWlLk6GJQsqaUBKTNV-1" vertex="1">
            <mxGeometry x="1075" y="501" width="330" height="94" as="geometry" />
          </mxCell>
        </UserObject>
        <UserObject label="Company suffers from massive data breach, and goes out of business due to legal costs" lucidchartObjectId="5Kn~Tkd7QFde" id="Fv76a3I3B7tXcrqNxbKV-22">
          <mxCell style="html=1;overflow=block;blockSpacing=1;whiteSpace=wrap;rounded=1;arcSize=50;fontSize=16.7;fontColor=#3a414a;spacing=3.8;strokeColor=#3a414a;strokeOpacity=100;strokeWidth=0.8;" parent="WIyWlLk6GJQsqaUBKTNV-1" vertex="1">
            <mxGeometry x="1589" y="385" width="225" height="88" as="geometry" />
          </mxCell>
        </UserObject>
        <UserObject label="Coworker is blamed for gross negligence/malpractice" lucidchartObjectId="NWn~ygerSUhz" id="Fv76a3I3B7tXcrqNxbKV-23">
          <mxCell style="html=1;overflow=block;blockSpacing=1;whiteSpace=wrap;rounded=1;arcSize=50;fontSize=16.7;fontColor=#3a414a;spacing=3.8;strokeColor=#3a414a;strokeOpacity=100;strokeWidth=0.8;" parent="WIyWlLk6GJQsqaUBKTNV-1" vertex="1">
            <mxGeometry x="1600" y="501" width="210" height="91" as="geometry" />
          </mxCell>
        </UserObject>
        <UserObject label="Encounter with infected thing" lucidchartObjectId="GYn~yvQWlH8s" id="Fv76a3I3B7tXcrqNxbKV-24">
          <mxCell style="html=1;overflow=block;blockSpacing=1;whiteSpace=wrap;rhombus;fontSize=16.7;fontColor=#3a414a;spacing=3.8;strokeColor=#3a414a;strokeOpacity=100;rounded=1;absoluteArcSize=1;arcSize=9;strokeWidth=0.8;" parent="WIyWlLk6GJQsqaUBKTNV-1" vertex="1">
            <mxGeometry x="1060" y="40" width="150" height="105" as="geometry" />
          </mxCell>
        </UserObject>
        <UserObject label="" lucidchartObjectId="GYn~lvGw1G5n" id="Fv76a3I3B7tXcrqNxbKV-25">
          <mxCell style="html=1;jettySize=18;whiteSpace=wrap;fontSize=13;strokeColor=#3a414a;strokeOpacity=100;strokeWidth=0.8;rounded=1;arcSize=12;edgeStyle=orthogonalEdgeStyle;startArrow=none;endArrow=block;endFill=1;exitX=0.5;exitY=0.99;exitPerimeter=0;entryX=0.5;entryY=0.01;entryPerimeter=0;" parent="WIyWlLk6GJQsqaUBKTNV-1" source="Fv76a3I3B7tXcrqNxbKV-24" target="Fv76a3I3B7tXcrqNxbKV-26" edge="1">
            <mxGeometry width="100" height="100" relative="1" as="geometry">
              <Array as="points" />
            </mxGeometry>
          </mxCell>
        </UserObject>
        <UserObject label="Get" lucidchartObjectId="GYn~DvPPzlFX" id="Fv76a3I3B7tXcrqNxbKV-26">
          <mxCell style="html=1;overflow=block;blockSpacing=1;whiteSpace=wrap;rhombus;fontSize=16.7;fontColor=#3a414a;spacing=3.8;strokeColor=#3a414a;strokeOpacity=100;rounded=1;absoluteArcSize=1;arcSize=9;strokeWidth=0.8;" parent="WIyWlLk6GJQsqaUBKTNV-1" vertex="1">
            <mxGeometry x="1060" y="205" width="150" height="106" as="geometry" />
          </mxCell>
        </UserObject>
        <UserObject label="Process" lucidchartObjectId="-6ybv-WZj0Fk" id="Fv76a3I3B7tXcrqNxbKV-27">
          <mxCell style="html=1;overflow=block;blockSpacing=1;whiteSpace=wrap;fontSize=35;fontColor=#3a414a;spacing=9;strokeColor=#3a414a;strokeOpacity=100;rounded=1;absoluteArcSize=1;arcSize=9;strokeWidth=0.8;" parent="WIyWlLk6GJQsqaUBKTNV-1" vertex="1">
            <mxGeometry x="790" y="160" width="210" height="150" as="geometry" />
          </mxCell>
        </UserObject>
        <UserObject label="Decision" lucidchartObjectId="k7ybLrz14hTr" id="Fv76a3I3B7tXcrqNxbKV-28">
          <mxCell style="html=1;overflow=block;blockSpacing=1;whiteSpace=wrap;rhombus;fontSize=35;fontColor=#3a414a;spacing=3.8;strokeColor=#3a414a;strokeOpacity=100;rounded=1;absoluteArcSize=1;arcSize=9;strokeWidth=0.8;" parent="WIyWlLk6GJQsqaUBKTNV-1" vertex="1">
            <mxGeometry x="790" y="370" width="210" height="135" as="geometry" />
          </mxCell>
        </UserObject>
        <UserObject label="CISO leaves" lucidchartObjectId="B7yb_Pnw9.HB" id="Fv76a3I3B7tXcrqNxbKV-29">
          <mxCell style="html=1;overflow=block;blockSpacing=1;whiteSpace=wrap;rounded=1;arcSize=50;fontSize=26.7;fontColor=#3a414a;spacing=3.8;strokeColor=#3a414a;strokeOpacity=100;strokeWidth=0.8;" parent="WIyWlLk6GJQsqaUBKTNV-1" vertex="1">
            <mxGeometry x="1450" y="880" width="210" height="60" as="geometry" />
          </mxCell>
        </UserObject>
        <UserObject label="Merge" lucidchartObjectId="t8ybQ4ks~9Tp" id="Fv76a3I3B7tXcrqNxbKV-30">
          <mxCell style="html=1;overflow=block;blockSpacing=1;whiteSpace=wrap;triangle;direction=south;anchorPointDirection=0;fontSize=35;fontColor=#3a414a;spacing=3.8;strokeColor=#3a414a;strokeOpacity=100;rounded=1;absoluteArcSize=1;arcSize=9;strokeWidth=0.8;" parent="WIyWlLk6GJQsqaUBKTNV-1" vertex="1">
            <mxGeometry x="790" y="775" width="210" height="150" as="geometry" />
          </mxCell>
        </UserObject>
        <UserObject label="Newbie&#39;s girlfriend falls victim to real sextortion" lucidchartObjectId="gbzbr81Mn5zN" id="Fv76a3I3B7tXcrqNxbKV-31">
          <mxCell style="html=1;overflow=block;blockSpacing=1;whiteSpace=wrap;rounded=1;arcSize=50;fontSize=16.7;fontColor=#3a414a;spacing=3.8;strokeColor=#3a414a;strokeOpacity=100;strokeWidth=0.8;" parent="WIyWlLk6GJQsqaUBKTNV-1" vertex="1">
            <mxGeometry x="1818" y="375" width="180" height="88" as="geometry" />
          </mxCell>
        </UserObject>
        <UserObject label="" lucidchartObjectId="KbzbhwGE0zK2" id="Fv76a3I3B7tXcrqNxbKV-32">
          <mxCell style="html=1;jettySize=18;whiteSpace=wrap;fontSize=13;strokeColor=#3a414a;strokeOpacity=100;strokeWidth=0.8;rounded=1;arcSize=12;edgeStyle=orthogonalEdgeStyle;startArrow=none;endArrow=block;endFill=1;exitX=0.5;exitY=1.004;exitPerimeter=0;entryX=0.5;entryY=-0.006;entryPerimeter=0;" parent="WIyWlLk6GJQsqaUBKTNV-1" source="Fv76a3I3B7tXcrqNxbKV-31" target="Fv76a3I3B7tXcrqNxbKV-19" edge="1">
            <mxGeometry width="100" height="100" relative="1" as="geometry">
              <Array as="points">
                <mxPoint x="1908" y="479" />
                <mxPoint x="2020" y="479" />
                <mxPoint x="2020" y="633" />
                <mxPoint x="1908" y="633" />
              </Array>
            </mxGeometry>
          </mxCell>
        </UserObject>
        <UserObject label="PII leakage due to professionals negligence. Company charges the pro for the damages. Pro goes into debt to pay fines" lucidchartObjectId="dqzb7Q81FWva" id="Fv76a3I3B7tXcrqNxbKV-33">
          <mxCell style="html=1;overflow=block;blockSpacing=1;whiteSpace=wrap;rounded=1;arcSize=50;fontSize=16.7;fontColor=#3a414a;spacing=3.8;strokeColor=#3a414a;strokeOpacity=100;strokeWidth=0.8;" parent="WIyWlLk6GJQsqaUBKTNV-1" vertex="1">
            <mxGeometry x="1075" y="621" width="330" height="104" as="geometry" />
          </mxCell>
        </UserObject>
        <UserObject label="Pros career is ruined due to the stained reputation. Pro can&#39;t find a job" lucidchartObjectId="1qzbNTaXmMs5" id="Fv76a3I3B7tXcrqNxbKV-34">
          <mxCell style="html=1;overflow=block;blockSpacing=1;whiteSpace=wrap;rounded=1;arcSize=50;fontSize=16.7;fontColor=#3a414a;spacing=3.8;strokeColor=#3a414a;strokeOpacity=100;strokeWidth=0.8;" parent="WIyWlLk6GJQsqaUBKTNV-1" vertex="1">
            <mxGeometry x="1075" y="745" width="330" height="96" as="geometry" />
          </mxCell>
        </UserObject>
        <UserObject label="Pro is converted into an insider by extortion" lucidchartObjectId="NrzbvfS4pkd~" id="Fv76a3I3B7tXcrqNxbKV-35">
          <mxCell style="html=1;overflow=block;blockSpacing=1;whiteSpace=wrap;rounded=1;arcSize=50;fontSize=16.7;fontColor=#3a414a;spacing=3.8;strokeColor=#3a414a;strokeOpacity=100;strokeWidth=0.8;" parent="WIyWlLk6GJQsqaUBKTNV-1" vertex="1">
            <mxGeometry x="1075" y="861" width="330" height="109" as="geometry" />
          </mxCell>
        </UserObject>
        <UserObject label="" lucidchartObjectId="evzbR4wp72Lu" id="Fv76a3I3B7tXcrqNxbKV-36">
          <mxCell style="html=1;jettySize=18;whiteSpace=wrap;fontSize=13;strokeColor=#3a414a;strokeOpacity=100;strokeWidth=0.8;rounded=1;arcSize=12;edgeStyle=orthogonalEdgeStyle;startArrow=none;endArrow=block;endFill=1;exitX=0.5;exitY=1.006;exitPerimeter=0;entryX=0.5;entryY=-0.004;entryPerimeter=0;" parent="WIyWlLk6GJQsqaUBKTNV-1" source="Fv76a3I3B7tXcrqNxbKV-19" target="Fv76a3I3B7tXcrqNxbKV-37" edge="1">
            <mxGeometry width="100" height="100" relative="1" as="geometry">
              <Array as="points" />
            </mxGeometry>
          </mxCell>
        </UserObject>
        <UserObject label="only fans doesn&#39;t pay as much as expected" lucidchartObjectId="gvzbGEmv-~gL" id="Fv76a3I3B7tXcrqNxbKV-37">
          <mxCell style="html=1;overflow=block;blockSpacing=1;whiteSpace=wrap;rounded=1;arcSize=50;fontSize=16.7;fontColor=#3a414a;spacing=3.8;strokeColor=#3a414a;strokeOpacity=100;strokeWidth=0.8;" parent="WIyWlLk6GJQsqaUBKTNV-1" vertex="1">
            <mxGeometry x="1855" y="761" width="120" height="88" as="geometry" />
          </mxCell>
        </UserObject>
        <UserObject label="" lucidchartObjectId="pvzbnMMgi4mJ" id="Fv76a3I3B7tXcrqNxbKV-38">
          <mxCell style="html=1;jettySize=18;whiteSpace=wrap;fontSize=13;strokeColor=#3a414a;strokeOpacity=100;strokeWidth=0.8;rounded=1;arcSize=12;edgeStyle=orthogonalEdgeStyle;startArrow=none;endArrow=block;endFill=1;exitX=0.5;exitY=1.004;exitPerimeter=0;entryX=0.5;entryY=-0.006;entryPerimeter=0;" parent="WIyWlLk6GJQsqaUBKTNV-1" source="Fv76a3I3B7tXcrqNxbKV-37" target="Fv76a3I3B7tXcrqNxbKV-39" edge="1">
            <mxGeometry width="100" height="100" relative="1" as="geometry">
              <Array as="points" />
            </mxGeometry>
          </mxCell>
        </UserObject>
        <UserObject label="Suck dick behind KFC in lasnamae" lucidchartObjectId="rvzbZoBcCjfF" id="Fv76a3I3B7tXcrqNxbKV-39">
          <mxCell style="html=1;overflow=block;blockSpacing=1;whiteSpace=wrap;rounded=1;arcSize=50;fontSize=16.7;fontColor=#3a414a;spacing=3.8;strokeColor=#3a414a;strokeOpacity=100;strokeWidth=0.8;" parent="WIyWlLk6GJQsqaUBKTNV-1" vertex="1">
            <mxGeometry x="1855" y="906" width="120" height="68" as="geometry" />
          </mxCell>
        </UserObject>
        <UserObject label="" lucidchartObjectId="xFzbGi7lYedz" id="Fv76a3I3B7tXcrqNxbKV-41">
          <mxCell style="html=1;jettySize=18;whiteSpace=wrap;fontSize=13;strokeColor=#3a414a;strokeOpacity=100;strokeWidth=0.8;rounded=1;arcSize=12;edgeStyle=orthogonalEdgeStyle;startArrow=none;endArrow=block;endFill=1;entryX=0.5;entryY=0.99;entryPerimeter=0;" parent="WIyWlLk6GJQsqaUBKTNV-1" target="Fv76a3I3B7tXcrqNxbKV-26" edge="1">
            <mxGeometry width="100" height="100" relative="1" as="geometry">
              <Array as="points" />
              <mxPoint x="1540" y="205" as="sourcePoint" />
            </mxGeometry>
          </mxCell>
        </UserObject>
        <mxCell id="Fv76a3I3B7tXcrqNxbKV-42" value="" style="fillColor=none;strokeColor=none;pointerEvents=0;fontStyle=0;html=1;whiteSpace=wrap;container=1;collapsible=0;childLayout=stackLayout;resizeParent=1;dropTarget=0;horizontalStack=0;fontSize=13;spacing=0;strokeOpacity=100;rounded=1;absoluteArcSize=1;arcSize=9;horizontal=0;strokeWidth=0.8;" parent="WIyWlLk6GJQsqaUBKTNV-1" vertex="1">
          <mxGeometry x="1461" y="-1244" width="900" height="720" isRotated="1" as="geometry" />
        </mxCell>
        <mxCell id="Fv76a3I3B7tXcrqNxbKV-43" value="Swim Lane" style="swimlane;html=1;whiteSpace=wrap;connectable=0;fontStyle=0;startSize=30;dropTarget=0;rounded=0;horizontal=0;spacing=0;strokeColor=#3a414a;strokeOpacity=100;strokeWidth=0.8;container=1;pointerEvents=0;collapsible=0;recursiveResize=0;fontSize=16.7;fontColor=#3a414a;" parent="Fv76a3I3B7tXcrqNxbKV-42" vertex="1">
          <mxGeometry width="900" height="240" as="geometry" />
        </mxCell>
        <mxCell id="Fv76a3I3B7tXcrqNxbKV-44" value="Swim Lane" style="swimlane;html=1;whiteSpace=wrap;connectable=0;fontStyle=0;startSize=30;dropTarget=0;rounded=0;horizontal=0;spacing=0;strokeColor=#3a414a;strokeOpacity=100;strokeWidth=0.8;container=1;pointerEvents=0;collapsible=0;recursiveResize=0;fontSize=16.7;fontColor=#3a414a;" parent="Fv76a3I3B7tXcrqNxbKV-42" vertex="1">
          <mxGeometry y="240" width="900" height="240" as="geometry" />
        </mxCell>
        <mxCell id="Fv76a3I3B7tXcrqNxbKV-45" value="Swim Lane" style="swimlane;html=1;whiteSpace=wrap;connectable=0;fontStyle=0;startSize=30;dropTarget=0;rounded=0;horizontal=0;spacing=0;strokeColor=#3a414a;strokeOpacity=100;strokeWidth=0.8;container=1;pointerEvents=0;collapsible=0;recursiveResize=0;fontSize=16.7;fontColor=#3a414a;" parent="Fv76a3I3B7tXcrqNxbKV-42" vertex="1">
          <mxGeometry y="480" width="900" height="240" as="geometry" />
        </mxCell>
        <UserObject label="Start" lucidchartObjectId="15ybWUrxzXfq" id="Fv76a3I3B7tXcrqNxbKV-46">
          <mxCell style="html=1;overflow=block;blockSpacing=1;whiteSpace=wrap;fontSize=16.7;fontColor=#3a414a;spacing=9;strokeColor=#3a414a;strokeOpacity=100;rounded=1;absoluteArcSize=1;arcSize=9;strokeWidth=0.8;" parent="WIyWlLk6GJQsqaUBKTNV-1" vertex="1">
            <mxGeometry x="1170" y="-1350" width="120" height="90" as="geometry" />
          </mxCell>
        </UserObject>
        <UserObject label="Student or worker" lucidchartObjectId="~5ybAg7iZHmq" id="Fv76a3I3B7tXcrqNxbKV-47">
          <mxCell style="html=1;overflow=block;blockSpacing=1;whiteSpace=wrap;rhombus;fontSize=16.7;fontColor=#3a414a;spacing=3.8;strokeColor=#3a414a;strokeOpacity=100;rounded=1;absoluteArcSize=1;arcSize=9;strokeWidth=0.8;" parent="WIyWlLk6GJQsqaUBKTNV-1" vertex="1">
            <mxGeometry x="1170" y="-1200" width="120" height="90" as="geometry" />
          </mxCell>
        </UserObject>
        <UserObject label="" lucidchartObjectId="d6ybUppM5.hG" id="Fv76a3I3B7tXcrqNxbKV-48">
          <mxCell style="html=1;jettySize=18;whiteSpace=wrap;fontSize=13;strokeColor=#3a414a;strokeOpacity=100;strokeWidth=0.8;rounded=1;arcSize=12;edgeStyle=orthogonalEdgeStyle;startArrow=none;endArrow=block;endFill=1;exitX=0.5;exitY=1.004;exitPerimeter=0;entryX=0.5;entryY=0.012;entryPerimeter=0;" parent="WIyWlLk6GJQsqaUBKTNV-1" source="Fv76a3I3B7tXcrqNxbKV-46" target="Fv76a3I3B7tXcrqNxbKV-47" edge="1">
            <mxGeometry width="100" height="100" relative="1" as="geometry">
              <Array as="points" />
            </mxGeometry>
          </mxCell>
        </UserObject>
        <UserObject label="" lucidchartObjectId="F6yb4zQEIHZo" id="Fv76a3I3B7tXcrqNxbKV-49">
          <mxCell style="html=1;jettySize=18;whiteSpace=wrap;fontSize=13;strokeColor=#3a414a;strokeOpacity=100;strokeWidth=0.8;rounded=1;arcSize=12;edgeStyle=orthogonalEdgeStyle;startArrow=none;endArrow=block;endFill=1;exitX=0.984;exitY=0.5;exitPerimeter=0;entryX=-0.003;entryY=0.5;entryPerimeter=0;" parent="WIyWlLk6GJQsqaUBKTNV-1" source="Fv76a3I3B7tXcrqNxbKV-47" target="Fv76a3I3B7tXcrqNxbKV-50" edge="1">
            <mxGeometry width="100" height="100" relative="1" as="geometry">
              <Array as="points" />
            </mxGeometry>
          </mxCell>
        </UserObject>
        <UserObject label="You go to work" lucidchartObjectId="L6yb~rcC3omg" id="Fv76a3I3B7tXcrqNxbKV-50">
          <mxCell style="html=1;overflow=block;blockSpacing=1;whiteSpace=wrap;fontSize=16.7;fontColor=#3a414a;spacing=9;strokeColor=#3a414a;strokeOpacity=100;rounded=1;absoluteArcSize=1;arcSize=9;strokeWidth=0.8;" parent="WIyWlLk6GJQsqaUBKTNV-1" vertex="1">
            <mxGeometry x="1395" y="-1200" width="120" height="90" as="geometry" />
          </mxCell>
        </UserObject>
        <UserObject label="IT?" lucidchartObjectId="66ybD7N3l-6J" id="Fv76a3I3B7tXcrqNxbKV-51">
          <mxCell style="html=1;overflow=block;blockSpacing=1;whiteSpace=wrap;rhombus;fontSize=16.7;fontColor=#3a414a;spacing=3.8;strokeColor=#3a414a;strokeOpacity=100;rounded=1;absoluteArcSize=1;arcSize=9;strokeWidth=0.8;" parent="WIyWlLk6GJQsqaUBKTNV-1" vertex="1">
            <mxGeometry x="1395" y="-1020" width="120" height="90" as="geometry" />
          </mxCell>
        </UserObject>
        <UserObject label="" lucidchartObjectId="86ybEq08CCTw" id="Fv76a3I3B7tXcrqNxbKV-52">
          <mxCell style="html=1;jettySize=18;whiteSpace=wrap;fontSize=13;strokeColor=#3a414a;strokeOpacity=100;strokeWidth=0.8;rounded=1;arcSize=12;edgeStyle=orthogonalEdgeStyle;startArrow=none;endArrow=block;endFill=1;exitX=0.503;exitY=1.004;exitPerimeter=0;entryX=0.503;entryY=0.013;entryPerimeter=0;" parent="WIyWlLk6GJQsqaUBKTNV-1" source="Fv76a3I3B7tXcrqNxbKV-50" target="Fv76a3I3B7tXcrqNxbKV-51" edge="1">
            <mxGeometry width="100" height="100" relative="1" as="geometry">
              <Array as="points" />
            </mxGeometry>
          </mxCell>
        </UserObject>
        <UserObject label="PRO path" lucidchartObjectId="g7yb3vDbNxn." id="Fv76a3I3B7tXcrqNxbKV-53">
          <mxCell style="html=1;overflow=block;blockSpacing=1;whiteSpace=wrap;fontSize=16.7;fontColor=#3a414a;spacing=9;strokeColor=#3a414a;strokeOpacity=100;rounded=1;absoluteArcSize=1;arcSize=9;strokeWidth=0.8;" parent="WIyWlLk6GJQsqaUBKTNV-1" vertex="1">
            <mxGeometry x="1650" y="-1020" width="120" height="90" as="geometry" />
          </mxCell>
        </UserObject>
        <UserObject label="" lucidchartObjectId="m7ybuINFhq4w" id="Fv76a3I3B7tXcrqNxbKV-54">
          <mxCell style="html=1;jettySize=18;whiteSpace=wrap;fontSize=13;strokeColor=#3a414a;strokeOpacity=100;strokeWidth=0.8;rounded=1;arcSize=12;edgeStyle=orthogonalEdgeStyle;startArrow=none;endArrow=block;endFill=1;exitX=0.984;exitY=0.5;exitPerimeter=0;entryX=-0.003;entryY=0.5;entryPerimeter=0;" parent="WIyWlLk6GJQsqaUBKTNV-1" source="Fv76a3I3B7tXcrqNxbKV-51" target="Fv76a3I3B7tXcrqNxbKV-53" edge="1">
            <mxGeometry width="100" height="100" relative="1" as="geometry">
              <Array as="points" />
            </mxGeometry>
          </mxCell>
        </UserObject>
        <UserObject label="Worker" lucidchartObjectId="u7ybj63G~.yd" id="Fv76a3I3B7tXcrqNxbKV-55">
          <mxCell style="html=1;overflow=block;blockSpacing=1;whiteSpace=wrap;fontSize=16.7;fontColor=#3a414a;spacing=3.8;strokeOpacity=0;fillOpacity=0;rounded=1;absoluteArcSize=1;arcSize=9;fillColor=#ffffff;strokeWidth=0.8;" parent="WIyWlLk6GJQsqaUBKTNV-1" vertex="1">
            <mxGeometry x="1245" y="-1200" width="180" height="45" as="geometry" />
          </mxCell>
        </UserObject>
        <UserObject label="Yes" lucidchartObjectId="A7ybHB.tkC-G" id="Fv76a3I3B7tXcrqNxbKV-56">
          <mxCell style="html=1;overflow=block;blockSpacing=1;whiteSpace=wrap;fontSize=16.7;fontColor=#3a414a;spacing=3.8;strokeOpacity=0;fillOpacity=0;rounded=1;absoluteArcSize=1;arcSize=9;fillColor=#ffffff;strokeWidth=0.8;" parent="WIyWlLk6GJQsqaUBKTNV-1" vertex="1">
            <mxGeometry x="1485" y="-1020" width="180" height="45" as="geometry" />
          </mxCell>
        </UserObject>
        <UserObject label="NEWBIE path" lucidchartObjectId="O7ybN9MBZP0G" id="Fv76a3I3B7tXcrqNxbKV-57">
          <mxCell style="html=1;overflow=block;blockSpacing=1;whiteSpace=wrap;fontSize=16.7;fontColor=#3a414a;spacing=9;strokeColor=#3a414a;strokeOpacity=100;rounded=1;absoluteArcSize=1;arcSize=9;strokeWidth=0.8;" parent="WIyWlLk6GJQsqaUBKTNV-1" vertex="1">
            <mxGeometry x="1170" y="-1020" width="120" height="90" as="geometry" />
          </mxCell>
        </UserObject>
        <UserObject label="" lucidchartObjectId="R7ybbDVH.iUI" id="Fv76a3I3B7tXcrqNxbKV-58">
          <mxCell style="html=1;jettySize=18;whiteSpace=wrap;fontSize=13;strokeColor=#3a414a;strokeOpacity=100;strokeWidth=0.8;rounded=1;arcSize=12;edgeStyle=orthogonalEdgeStyle;startArrow=none;endArrow=block;endFill=1;exitX=0.016;exitY=0.5;exitPerimeter=0;entryX=1.003;entryY=0.5;entryPerimeter=0;" parent="WIyWlLk6GJQsqaUBKTNV-1" source="Fv76a3I3B7tXcrqNxbKV-51" target="Fv76a3I3B7tXcrqNxbKV-57" edge="1">
            <mxGeometry width="100" height="100" relative="1" as="geometry">
              <Array as="points" />
            </mxGeometry>
          </mxCell>
        </UserObject>
        <UserObject label="No" lucidchartObjectId="X7yb0Xexyyy_" id="Fv76a3I3B7tXcrqNxbKV-59">
          <mxCell style="html=1;overflow=block;blockSpacing=1;whiteSpace=wrap;fontSize=16.7;fontColor=#3a414a;spacing=3.8;strokeOpacity=0;fillOpacity=0;rounded=1;absoluteArcSize=1;arcSize=9;fillColor=#ffffff;strokeWidth=0.8;" parent="WIyWlLk6GJQsqaUBKTNV-1" vertex="1">
            <mxGeometry x="1260" y="-1020" width="180" height="45" as="geometry" />
          </mxCell>
        </UserObject>
        <UserObject label="Process" lucidchartObjectId="m8ybgQBXlnON" id="Fv76a3I3B7tXcrqNxbKV-60">
          <mxCell style="html=1;overflow=block;blockSpacing=1;whiteSpace=wrap;fontSize=16.7;fontColor=#3a414a;spacing=9;strokeColor=#3a414a;strokeOpacity=100;rounded=1;absoluteArcSize=1;arcSize=9;strokeWidth=0.8;" parent="WIyWlLk6GJQsqaUBKTNV-1" vertex="1">
            <mxGeometry x="840" y="-1200" width="120" height="90" as="geometry" />
          </mxCell>
        </UserObject>
        <UserObject label="" lucidchartObjectId="o8yb9ny7lSqw" id="Fv76a3I3B7tXcrqNxbKV-61">
          <mxCell style="html=1;jettySize=18;whiteSpace=wrap;fontSize=13;strokeColor=#3a414a;strokeOpacity=100;strokeWidth=0.8;rounded=1;arcSize=12;edgeStyle=orthogonalEdgeStyle;startArrow=none;endArrow=block;endFill=1;exitX=0.016;exitY=0.5;exitPerimeter=0;entryX=1.003;entryY=0.5;entryPerimeter=0;" parent="WIyWlLk6GJQsqaUBKTNV-1" source="Fv76a3I3B7tXcrqNxbKV-47" target="Fv76a3I3B7tXcrqNxbKV-60" edge="1">
            <mxGeometry width="100" height="100" relative="1" as="geometry">
              <Array as="points" />
            </mxGeometry>
          </mxCell>
        </UserObject>
        <UserObject label="Student" lucidchartObjectId="t8yba5EO925G" id="Fv76a3I3B7tXcrqNxbKV-62">
          <mxCell style="html=1;overflow=block;blockSpacing=1;whiteSpace=wrap;fontSize=16.7;fontColor=#3a414a;spacing=3.8;strokeOpacity=0;fillOpacity=0;rounded=1;absoluteArcSize=1;arcSize=9;fillColor=#ffffff;strokeWidth=0.8;" parent="WIyWlLk6GJQsqaUBKTNV-1" vertex="1">
            <mxGeometry x="960" y="-1200" width="180" height="45" as="geometry" />
          </mxCell>
        </UserObject>
        <UserObject label="Where are you going to on Thursday?" lucidchartObjectId="wezbNYqJQ-cT" id="Fv76a3I3B7tXcrqNxbKV-63">
          <mxCell style="html=1;overflow=block;blockSpacing=1;whiteSpace=wrap;rhombus;fontSize=16.7;fontColor=#3a414a;spacing=3.8;strokeColor=#3a414a;strokeOpacity=100;rounded=1;absoluteArcSize=1;arcSize=9;strokeWidth=0.8;" parent="WIyWlLk6GJQsqaUBKTNV-1" vertex="1">
            <mxGeometry x="1830" y="-1050" width="195" height="150" as="geometry" />
          </mxCell>
        </UserObject>
        <UserObject label="" lucidchartObjectId="DezbriZHB96c" id="Fv76a3I3B7tXcrqNxbKV-64">
          <mxCell style="html=1;jettySize=18;whiteSpace=wrap;fontSize=13;strokeColor=#3a414a;strokeOpacity=100;strokeWidth=0.8;rounded=1;arcSize=12;edgeStyle=orthogonalEdgeStyle;startArrow=none;endArrow=block;endFill=1;exitX=1.003;exitY=0.5;exitPerimeter=0;entryX=0.016;entryY=0.5;entryPerimeter=0;" parent="WIyWlLk6GJQsqaUBKTNV-1" source="Fv76a3I3B7tXcrqNxbKV-53" target="Fv76a3I3B7tXcrqNxbKV-63" edge="1">
            <mxGeometry width="100" height="100" relative="1" as="geometry">
              <Array as="points" />
            </mxGeometry>
          </mxCell>
        </UserObject>
        <UserObject label="" lucidchartObjectId="9ezbldMncSk3" id="Fv76a3I3B7tXcrqNxbKV-65">
          <mxCell style="html=1;jettySize=18;whiteSpace=wrap;fontSize=13.3;fontColor=#333333;fontStyle=1;strokeColor=#3a414a;strokeOpacity=100;strokeWidth=0.8;rounded=1;arcSize=12;edgeStyle=orthogonalEdgeStyle;startArrow=none;endArrow=block;endFill=1;exitX=0.5;exitY=0.008;exitPerimeter=0;entryX=0.5;entryY=1.004;entryPerimeter=0;" parent="WIyWlLk6GJQsqaUBKTNV-1" source="Fv76a3I3B7tXcrqNxbKV-63" target="Fv76a3I3B7tXcrqNxbKV-67" edge="1">
            <mxGeometry width="100" height="100" relative="1" as="geometry">
              <Array as="points" />
            </mxGeometry>
          </mxCell>
        </UserObject>
        <mxCell id="Fv76a3I3B7tXcrqNxbKV-66" value="I have a date" style="text;html=1;resizable=0;labelBackgroundColor=default;align=center;verticalAlign=middle;fontStyle=1;fontColor=#333333;fontSize=13.3;" parent="Fv76a3I3B7tXcrqNxbKV-65" vertex="1">
          <mxGeometry relative="1" as="geometry" />
        </mxCell>
        <UserObject label="You go out on a date - menu has a QR code" lucidchartObjectId=".ezbposMh9tV" id="Fv76a3I3B7tXcrqNxbKV-67">
          <mxCell style="html=1;overflow=block;blockSpacing=1;whiteSpace=wrap;fontSize=16.7;fontColor=#3a414a;spacing=9;strokeColor=#3a414a;strokeOpacity=100;rounded=1;absoluteArcSize=1;arcSize=9;strokeWidth=0.8;" parent="WIyWlLk6GJQsqaUBKTNV-1" vertex="1">
            <mxGeometry x="1868" y="-1204" width="120" height="98" as="geometry" />
          </mxCell>
        </UserObject>
        <UserObject label="" lucidchartObjectId="Afzbh0e98~tY" id="Fv76a3I3B7tXcrqNxbKV-68">
          <mxCell style="html=1;jettySize=18;whiteSpace=wrap;fontSize=13.3;fontColor=#333333;fontStyle=1;strokeColor=#3a414a;strokeOpacity=100;strokeWidth=0.8;rounded=1;arcSize=12;edgeStyle=orthogonalEdgeStyle;startArrow=none;endArrow=block;endFill=1;exitX=0.5;exitY=0.992;exitPerimeter=0;entryX=0.5;entryY=-0.004;entryPerimeter=0;" parent="WIyWlLk6GJQsqaUBKTNV-1" source="Fv76a3I3B7tXcrqNxbKV-63" target="Fv76a3I3B7tXcrqNxbKV-70" edge="1">
            <mxGeometry width="100" height="100" relative="1" as="geometry">
              <Array as="points" />
            </mxGeometry>
          </mxCell>
        </UserObject>
        <mxCell id="Fv76a3I3B7tXcrqNxbKV-69" value="I&#39;ll take the conference offer" style="text;html=1;resizable=0;labelBackgroundColor=default;align=center;verticalAlign=middle;fontStyle=1;fontColor=#333333;fontSize=13.3;" parent="Fv76a3I3B7tXcrqNxbKV-68" vertex="1">
          <mxGeometry relative="1" as="geometry" />
        </mxCell>
        <UserObject label="Process" lucidchartObjectId="Cfzb0wyCpryP" id="Fv76a3I3B7tXcrqNxbKV-70">
          <mxCell style="html=1;overflow=block;blockSpacing=1;whiteSpace=wrap;fontSize=16.7;fontColor=#3a414a;spacing=9;strokeColor=#3a414a;strokeOpacity=100;rounded=1;absoluteArcSize=1;arcSize=9;strokeWidth=0.8;" parent="WIyWlLk6GJQsqaUBKTNV-1" vertex="1">
            <mxGeometry x="1868" y="-841" width="120" height="90" as="geometry" />
          </mxCell>
        </UserObject>
        <UserObject label="Process" lucidchartObjectId="OnzbMSQDLHn8" id="Fv76a3I3B7tXcrqNxbKV-71">
          <mxCell style="html=1;overflow=block;blockSpacing=1;whiteSpace=wrap;fontSize=16.7;fontColor=#3a414a;spacing=9;strokeColor=#3a414a;strokeOpacity=100;rounded=1;absoluteArcSize=1;arcSize=9;strokeWidth=0.8;" parent="WIyWlLk6GJQsqaUBKTNV-1" vertex="1">
            <mxGeometry x="2070" y="-1200" width="120" height="90" as="geometry" />
          </mxCell>
        </UserObject>
        <UserObject label="" lucidchartObjectId="Xozb3bGCbhN-" id="Fv76a3I3B7tXcrqNxbKV-72">
          <mxCell style="html=1;jettySize=18;whiteSpace=wrap;fontSize=13;strokeColor=#3a414a;strokeOpacity=100;strokeWidth=0.8;rounded=1;arcSize=12;edgeStyle=orthogonalEdgeStyle;startArrow=none;endArrow=block;endFill=1;exitX=1.003;exitY=0.5;exitPerimeter=0;entryX=-0.003;entryY=0.5;entryPerimeter=0;" parent="WIyWlLk6GJQsqaUBKTNV-1" source="Fv76a3I3B7tXcrqNxbKV-67" target="Fv76a3I3B7tXcrqNxbKV-71" edge="1">
            <mxGeometry width="100" height="100" relative="1" as="geometry">
              <Array as="points" />
            </mxGeometry>
          </mxCell>
        </UserObject>
        <UserObject label="Process" lucidchartObjectId="OnzbMSQDLHn8" id="3gWlXT2M259s6UJQ4ptm-0">
          <mxCell style="html=1;overflow=block;blockSpacing=1;whiteSpace=wrap;fontSize=16.7;fontColor=#3a414a;spacing=9;strokeColor=#3a414a;strokeOpacity=100;rounded=1;absoluteArcSize=1;arcSize=9;strokeWidth=0.8;" vertex="1" parent="WIyWlLk6GJQsqaUBKTNV-1">
            <mxGeometry x="2481" y="-1190" width="120" height="90" as="geometry" />
          </mxCell>
        </UserObject>
      </root>
    </mxGraphModel>
  </diagram>
</mxfile>
